<svg xmlns="http://www.w3.org/2000/svg" width="283.109" height="112.286" viewBox="0 0 283.109 112.286">
  <defs>
    <style>
      .cls-1 {
        fill: #fff;
      }
    </style>
  </defs>
  <g id="logo_EatsManger" transform="translate(-8.571 -10.584)">
    <g id="Group_3" data-name="Group 3" transform="matrix(0.777, -0.629, 0.629, 0.777, 0, 50.237)">
      <g id="Group_1" data-name="Group 1" transform="translate(0 0)">
        <path id="Path_1" data-name="Path 1" class="cls-1" d="M77.58,27.114A39.008,39.008,0,0,0,66.535,10.2,38.676,38.676,0,0,0,37.832.049,38.211,38.211,0,0,0,10.081,13.16,38.472,38.472,0,0,0,.064,41.99,38.388,38.388,0,0,0,13.049,69.61a38.688,38.688,0,0,0,19.293,9.541,40.217,40.217,0,0,0,14.17.122c.038,0,.076-.014.113-.019q1.306-.225,2.6-.551a5.1,5.1,0,0,0,1.491-1.124,5.185,5.185,0,0,0,1.293-2.555,5.479,5.479,0,0,0,.085-.974c0-.056,0-.108,0-.164L51.245,71.4l-.132-.391a5.123,5.123,0,0,0-.752-.837,5.194,5.194,0,0,0-3.477-1.332c-.071,0-.146,0-.216,0q-.875.218-1.755.381a29.122,29.122,0,0,1-25.061-7.174A28.853,28.853,0,0,1,10.475,45.64l63.407.654,1.356.014h0a5.2,5.2,0,0,0,3.208-1.642,5.193,5.193,0,0,0,1.294-2.554c.023-.122.037-.245.051-.368.014-.273.023-.545.023-.823A40.8,40.8,0,0,0,77.58,27.114ZM10.217,35.69a29.718,29.718,0,0,1,7.428-15.718A28.8,28.8,0,0,1,38.218,9.984a28.8,28.8,0,0,1,21.5,7.782,28.678,28.678,0,0,1,9.612,18.366Z" transform="translate(0 13.619)"/>
        <path id="Path_2" data-name="Path 2" class="cls-1" d="M17.345,8.143a8.563,8.563,0,0,1-.03,1.452,29.272,29.272,0,0,0-9.771-.532A29.136,29.136,0,0,0,.251,10.755,8.394,8.394,0,0,1,.016,9.189,8.68,8.68,0,0,1,17.345,8.143Z" transform="translate(29.519 0)"/>
      </g>
    </g>
    <g id="Group_4" data-name="Group 4" transform="translate(122.793 27.59)">
      <path id="Path_3" data-name="Path 3" class="cls-1" d="M246.738,656.462a6.668,6.668,0,0,0,1.543,4.224,4.7,4.7,0,0,0,3.68,1.567,5.162,5.162,0,0,0,2.682-.689,3.113,3.113,0,0,0,1.495-1.922h6.36a10.241,10.241,0,0,1-3.8,5.553,10.758,10.758,0,0,1-6.455,1.946q-11.678,0-11.677-12.722a14.794,14.794,0,0,1,.76-4.889,10.555,10.555,0,0,1,2.206-3.75,9.55,9.55,0,0,1,3.536-2.4,12.917,12.917,0,0,1,4.794-.83q5.411,0,8.189,3.465t2.776,10.443Zm9.731-3.892a6.526,6.526,0,0,0-.45-2.255,4.724,4.724,0,0,0-1.069-1.614,4.25,4.25,0,0,0-1.518-.949,5.132,5.132,0,0,0-1.757-.309,4.38,4.38,0,0,0-3.2,1.354,5.773,5.773,0,0,0-1.543,3.773Z" transform="translate(-240.568 -636.858)"/>
      <path id="Path_4" data-name="Path 4" class="cls-1" d="M278.2,666.525a9.485,9.485,0,0,1-.379-2.089,7.627,7.627,0,0,1-2.9,1.97,11,11,0,0,1-4.177.736q-4.035,0-5.91-1.779a6.1,6.1,0,0,1-1.875-4.629,8.471,8.471,0,0,1,.807-4.011,6.025,6.025,0,0,1,2.232-2.349,10.746,10.746,0,0,1,3.394-1.258q1.968-.4,4.3-.736a8.269,8.269,0,0,0,3.133-.878,2.169,2.169,0,0,0-.261-3.56,5.549,5.549,0,0,0-2.872-.641,4.148,4.148,0,0,0-3.062.949,4.451,4.451,0,0,0-1.163,2.516h-5.744a10.569,10.569,0,0,1,.593-3.323,6.359,6.359,0,0,1,1.756-2.611,8.22,8.22,0,0,1,3.156-1.685,16.474,16.474,0,0,1,4.747-.593,15.446,15.446,0,0,1,4.676.617,7.528,7.528,0,0,1,3.085,1.78,6.8,6.8,0,0,1,1.686,2.9,13.6,13.6,0,0,1,.521,3.917v14.762Zm-.427-11.441a3.332,3.332,0,0,1-1.376.76,25.186,25.186,0,0,1-2.611.617,8.838,8.838,0,0,0-3.655,1.329,2.819,2.819,0,0,0-1,2.326q0,2.61,2.991,2.611a5.945,5.945,0,0,0,2.207-.4,5.389,5.389,0,0,0,2.943-2.706,4.451,4.451,0,0,0,.45-1.969Z" transform="translate(-239.187 -636.858)"/>
      <path id="Path_5" data-name="Path 5" class="cls-1" d="M298.521,651.476h5.744v6.646a11.4,11.4,0,0,1-.547,3.536,8.276,8.276,0,0,1-1.708,2.991,8.137,8.137,0,0,1-2.943,2.064,10.784,10.784,0,0,1-4.248.76,11.24,11.24,0,0,1-4.368-.76,8.24,8.24,0,0,1-2.966-2.04,7.763,7.763,0,0,1-1.686-2.991,12.269,12.269,0,0,1-.521-3.607V637.189h6.075V643.5h12.912v4.367H291.353v9.589a6.033,6.033,0,0,0,.831,3.441,3.069,3.069,0,0,0,2.73,1.211,3.172,3.172,0,0,0,2.73-1.187,5.587,5.587,0,0,0,.878-3.37Z" transform="translate(-237.811 -637.189)"/>
      <path id="Path_6" data-name="Path 6" class="cls-1" d="M319.629,650.244a3.306,3.306,0,0,0-1.235-2.4,5.608,5.608,0,0,0-3.133-.688,6.481,6.481,0,0,0-2.706.451,1.543,1.543,0,0,0-.949,1.495,1.737,1.737,0,0,0,.949,1.59,12.78,12.78,0,0,0,2.849,1.068q1.991.568,3.8,1.02a28.774,28.774,0,0,1,3.181.974,6.651,6.651,0,0,1,2.847,2.065,5.768,5.768,0,0,1,1,3.583,6.842,6.842,0,0,1-2.587,5.7q-2.588,2.041-7.618,2.042-5.411,0-8.282-2.278a7.4,7.4,0,0,1-2.967-5.839h6.36a2.948,2.948,0,0,0,1.281,2.564,6.111,6.111,0,0,0,3.56.9,7.118,7.118,0,0,0,2.9-.546,1.908,1.908,0,0,0,1.234-1.875,1.8,1.8,0,0,0-1.116-1.756,14.6,14.6,0,0,0-2.635-.9q-2.943-.712-4.747-1.281a12.286,12.286,0,0,1-3.037-1.377,5.955,5.955,0,0,1-2.3-2.373,6.584,6.584,0,0,1-.64-2.9,7.2,7.2,0,0,1,.522-2.752,5.314,5.314,0,0,1,1.709-2.207,8.718,8.718,0,0,1,3.06-1.448,17.088,17.088,0,0,1,4.533-.522q5.079,0,7.477,1.946a7.618,7.618,0,0,1,2.633,5.744Z" transform="translate(-236.609 -636.858)"/>
      <path id="Path_7" data-name="Path 7" class="cls-1" d="M268.449,700.36V686.215a5.628,5.628,0,0,0-1-3.465,3.16,3.16,0,0,0-2.658-1.329,3.44,3.44,0,0,0-2.824,1.425,5.591,5.591,0,0,0-1.116,3.56V700.36h-6.17V686.309a11.751,11.751,0,0,0-.19-2.326,3.138,3.138,0,0,0-.641-1.424,2.41,2.41,0,0,0-1.163-.736,6,6,0,0,0-1.709-.213q-3.75,0-3.75,4.557V700.36h-6.17V677.006h5.791v3.418a6.924,6.924,0,0,1,2.847-3.18,8.618,8.618,0,0,1,3.988-.855,10.59,10.59,0,0,1,2.112.19,5.138,5.138,0,0,1,1.662.64,6.778,6.778,0,0,1,1.4,1.164,13.375,13.375,0,0,1,1.329,1.708,6.245,6.245,0,0,1,2.516-2.824,7.661,7.661,0,0,1,3.8-.878,8.57,8.57,0,0,1,3.227.593,7.28,7.28,0,0,1,2.516,1.662,7.873,7.873,0,0,1,2.231,5.53V700.36Z" transform="translate(-240.538 -634.772)"/>
      <path id="Path_8" data-name="Path 8" class="cls-1" d="M289.427,700.36a9.428,9.428,0,0,1-.379-2.089,7.642,7.642,0,0,1-2.9,1.97,11,11,0,0,1-4.178.736q-4.034,0-5.909-1.78a6.088,6.088,0,0,1-1.875-4.628,8.469,8.469,0,0,1,.807-4.011,6.01,6.01,0,0,1,2.232-2.349,10.743,10.743,0,0,1,3.393-1.258q1.97-.4,4.3-.736a8.279,8.279,0,0,0,3.134-.878,2.169,2.169,0,0,0-.262-3.56,5.548,5.548,0,0,0-2.872-.641,4.147,4.147,0,0,0-3.061.949,4.451,4.451,0,0,0-1.164,2.516h-5.744a10.631,10.631,0,0,1,.593-3.323,6.362,6.362,0,0,1,1.757-2.611,8.22,8.22,0,0,1,3.156-1.685,16.471,16.471,0,0,1,4.747-.593,15.452,15.452,0,0,1,4.676.617,7.537,7.537,0,0,1,3.085,1.78,6.786,6.786,0,0,1,1.685,2.9,13.566,13.566,0,0,1,.522,3.916V700.36ZM289,688.92a3.341,3.341,0,0,1-1.377.76,25.1,25.1,0,0,1-2.611.617,8.838,8.838,0,0,0-3.655,1.329,2.819,2.819,0,0,0-1,2.326q0,2.61,2.991,2.611a5.936,5.936,0,0,0,2.207-.4,5.378,5.378,0,0,0,2.943-2.706,4.439,4.439,0,0,0,.451-1.969Z" transform="translate(-238.495 -634.772)"/>
      <path id="Path_9" data-name="Path 9" class="cls-1" d="M311.452,700.36V686.215q0-2.706-.9-3.655a4.137,4.137,0,0,0-3.085-.949q-4.8,0-4.794,5.364V700.36H296.5V677.006h5.886v3.418a7.508,7.508,0,0,1,2.9-3.014,10.562,10.562,0,0,1,7.737-.522,6.539,6.539,0,0,1,2.444,1.5,7.167,7.167,0,0,1,1.614,2.444,8.774,8.774,0,0,1,.593,3.347V700.36Z" transform="translate(-237.119 -634.772)"/>
      <path id="Path_10" data-name="Path 10" class="cls-1" d="M333.646,700.36a9.487,9.487,0,0,1-.381-2.089,7.617,7.617,0,0,1-2.894,1.97,11.008,11.008,0,0,1-4.178.736q-4.035,0-5.909-1.78a6.089,6.089,0,0,1-1.876-4.628,8.457,8.457,0,0,1,.808-4.011,6.02,6.02,0,0,1,2.23-2.349,10.755,10.755,0,0,1,3.4-1.258q1.968-.4,4.3-.736a8.272,8.272,0,0,0,3.133-.878,2.169,2.169,0,0,0-.261-3.56,5.553,5.553,0,0,0-2.872-.641,4.15,4.15,0,0,0-3.062.949,4.451,4.451,0,0,0-1.163,2.516h-5.744a10.57,10.57,0,0,1,.593-3.323,6.36,6.36,0,0,1,1.756-2.611,8.228,8.228,0,0,1,3.156-1.685,16.472,16.472,0,0,1,4.747-.593,15.452,15.452,0,0,1,4.676.617,7.549,7.549,0,0,1,3.086,1.78,6.8,6.8,0,0,1,1.685,2.9,13.606,13.606,0,0,1,.521,3.916V700.36Zm-.428-11.44a3.334,3.334,0,0,1-1.377.76,24.968,24.968,0,0,1-2.611.617,8.845,8.845,0,0,0-3.655,1.329,2.821,2.821,0,0,0-1,2.326q0,2.61,2.99,2.611a5.932,5.932,0,0,0,2.207-.4,5.395,5.395,0,0,0,2.944-2.706,4.437,4.437,0,0,0,.45-1.969Z" transform="translate(-235.768 -634.772)"/>
      <path id="Path_11" data-name="Path 11" class="cls-1" d="M357.027,697.227a4.862,4.862,0,0,1-2.4,2.444,8.755,8.755,0,0,1-4.011.878,10.476,10.476,0,0,1-4.866-1.02,8.937,8.937,0,0,1-3.181-2.682A10.992,10.992,0,0,1,340.817,693a18.314,18.314,0,0,1-.546-4.462,14.594,14.594,0,0,1,.807-4.96,11.941,11.941,0,0,1,2.184-3.845,9.792,9.792,0,0,1,3.227-2.468,9.193,9.193,0,0,1,3.988-.878,7.207,7.207,0,0,1,6.55,3.513v-2.9h6.17V700.6a11.367,11.367,0,0,1-.9,4.676,9.492,9.492,0,0,1-2.469,3.37,10.826,10.826,0,0,1-3.7,2.066,15.033,15.033,0,0,1-9.066.023,10.689,10.689,0,0,1-3.584-1.946,8.964,8.964,0,0,1-2.349-3.062,9.419,9.419,0,0,1-.855-4.082h5.744a4.045,4.045,0,0,0,1.4,3.3,5.646,5.646,0,0,0,3.726,1.164,6.516,6.516,0,0,0,4.177-1.354,4.437,4.437,0,0,0,1.709-3.678Zm-5.08-1.519a4.771,4.771,0,0,0,3.774-1.733,6.98,6.98,0,0,0,1.495-4.723q0-7.5-5.269-7.5t-5.268,7.121a7.7,7.7,0,0,0,1.495,4.983A4.651,4.651,0,0,0,351.947,695.708Z" transform="translate(-234.42 -634.772)"/>
      <path id="Path_12" data-name="Path 12" class="cls-1" d="M370.093,690.3a6.662,6.662,0,0,0,1.543,4.224,4.7,4.7,0,0,0,3.679,1.567A5.167,5.167,0,0,0,378,695.4a3.116,3.116,0,0,0,1.495-1.922h6.36a10.246,10.246,0,0,1-3.8,5.554,10.764,10.764,0,0,1-6.456,1.946q-11.676,0-11.676-12.722a14.82,14.82,0,0,1,.759-4.889,10.557,10.557,0,0,1,2.207-3.75,9.55,9.55,0,0,1,3.536-2.4,12.909,12.909,0,0,1,4.793-.83q5.413,0,8.189,3.465t2.777,10.442Zm9.73-3.892a6.529,6.529,0,0,0-.45-2.255,4.71,4.71,0,0,0-1.068-1.614,4.263,4.263,0,0,0-1.519-.949,5.127,5.127,0,0,0-1.756-.309,4.383,4.383,0,0,0-3.2,1.353,5.773,5.773,0,0,0-1.543,3.774Z" transform="translate(-232.962 -634.772)"/>
      <path id="Path_13" data-name="Path 13" class="cls-1" d="M386.9,700.36V677.006h5.791v2.8a7.579,7.579,0,0,1,1.59-1.852,6.879,6.879,0,0,1,1.709-1.02,6.564,6.564,0,0,1,1.78-.451,17.8,17.8,0,0,1,1.85-.095h.807V682.7a10.419,10.419,0,0,0-1.709-.142q-5.649,0-5.648,5.649V700.36Z" transform="translate(-231.545 -634.772)"/>
    </g>
  </g>
</svg>
