<svg width="40" height="40" xmlns="http://www.w3.org/2000/svg" style="vector-effect: non-scaling-stroke;" stroke="null">

 <g stroke="null">
  <title stroke="null">background</title>
  <rect stroke="null" fill="none" id="canvas_background" height="42" width="42" y="-1" x="-1"/>
 </g>
 <g stroke="null">
  <title stroke="null" fill="#3f3f3f">Layer 1</title>
  <path stroke="null" fill="#3f3f3f" id="svg_1" d="m28.034618,21.076257l-16,0c-0.7,0 -1.1,0.6 -1,1.2l1.4,6.2c0.2,0.9 1,1.6 2,1.6l11.1,0c1,0 1.8,-0.7 2,-1.6l1.4,-6.2c0.2,-0.6 -0.3,-1.2 -0.9,-1.2zm-9,5c0,0.5 -0.4,1 -1,1s-1,-0.5 -1,-1l0,-2c0,-0.5 0.4,-1 1,-1s1,0.5 1,1l0,2zm4,0c0,0.5 -0.4,1 -1,1s-1,-0.5 -1,-1l0,-2c0,-0.5 0.4,-1 1,-1s1,0.5 1,1l0,2z"/>
  <path stroke="null" fill="#3f3f3f" id="svg_2" d="m28.999409,16.076257l-2.2,0l-1.9,-4.8c-0.4,-1 -1.6,-1.5 -2.6,-1.1c-1,0.4 -1.5,1.6 -1.1,2.6l1.3,3.3l-5,0l1.3,-3.3c0.4,-1 -0.1,-2.2 -1.1,-2.6c-1,-0.4 -2.2,0.1 -2.6,1.1l-1.9,4.8l-2.2,0c-1.1,0 -2,0.9 -2,2l0,1c0,0.6 0.4,1 1,1l20,0c0.6,0 1,-0.4 1,-1l0,-1c0,-1.1 -0.9,-2 -2,-2z"/>
  <ellipse stroke="null" ry="13.023235" rx="14.37207" id="svg_3" cy="21.607485" cx="19.99941" stroke-opacity="null" stroke-width="NaN" fill="none"/>
  <ellipse stroke="#3f3f3f" ry="17.110947" rx="17.581847" id="svg_4" cy="19.999409" cx="19.999409" stroke-width="2" fill="none"/>
 </g>
</svg>